<svg version="1.2" xmlns="http://www.w3.org/2000/svg" viewBox="0 0 804 522" width="804" height="522">
	<title>logo-svg</title>
	<style>
		.s0 { fill: #000000 } 
	</style>
	<g>
		<path class="s0" d="m396.6 21.1c-22.1 1.9-45.8 10.4-62.2 22.2-4.9 3.5-5.2 4.1-6.5 10.5-0.9 4.1-1.4 12.8-1.3 22.7 0.1 13.9 0.4 17.3 2.7 25.8 3.3 12.5 10 26 18.1 36.7 3.5 4.7 20.8 22.8 38.4 40.3l32 31.8 3.8-6.3c5.8-9.6 11.4-16.6 20-24.8 22.7-21.6 52.6-33.3 89.2-34.7 10.2-0.4 14.2-0.9 14.2-1.8 0-3.3-3.2-19-5.5-27-5.8-20-17.9-39.9-34-56.1-11.6-11.7-21-18.6-34.9-25.6-22.4-11.2-48.1-16-74-13.7z"/>
		<path class="s0" d="m310.4 63.6c-16.2 16.5-28 39.5-33.6 65.7-4.1 19.6-2.7 48.8 3.3 68.3 11.8 38.3 40.8 70.1 77.9 85.5 9.6 4 27.3 8.5 37.3 9.4l7.7 0.7v-11.6c0-19.4 3.2-41 8.1-55.3l1.9-5.7-35.8-36.1c-19.8-19.8-37.9-38.9-40.5-42.5-15.8-22.5-22.4-50.5-18.8-79.3 0.4-3.1 0.3-5.7-0.1-5.7-0.5 0-3.8 3-7.4 6.6z"/>
		<path class="s0" d="m520.5 155.7c-42.7 5.5-77.7 28.8-94.5 62.8-8.4 17-12.2 34.5-13.5 61.7l-0.5 12.8h3.7c6.5 0 22.4-2.8 31.8-5.5 42-12.2 76.5-44.2 90.4-83.8 4.2-11.9 6.9-26.1 7.3-38.2l0.3-10-11-0.1c-6-0.1-12.3 0-14 0.3z"/>
		<path class="s0" d="m58.2 352.5c-2.9 0.8-6.6 2.2-8.3 3.1-5.1 2.6-11.9 9.5-14.7 14.9-2.4 4.4-2.7 6.1-2.7 15 0 9.3 0.2 10.4 3.1 15.5 4.4 7.9 12.3 13 27.2 17.6 17.7 5.4 22.3 7.5 24.9 11.3 6.4 9.5-1.8 18-16.2 16.9-8.3-0.7-12.4-3.1-15.4-9.1l-2.3-4.7h-10.8c-11.4 0-14.6 1.1-13.6 4.9 0.2 0.9 0.8 3.2 1.1 5.1 1.6 8.2 10.3 18.1 19.8 22.6 7.7 3.5 15 4.7 25.2 4.1 17-1 29.1-7.6 35-19.2 2.7-5.4 3-6.7 3-15.9 0-9.3-0.2-10.5-2.9-15.4-5.4-9.7-11.9-13.8-30.9-19.6-18.5-5.6-22.7-8.4-22.7-15 0-8.3 10.2-13.2 20.7-10.1 5.4 1.6 10.3 6.1 10.3 9.4 0 1.6 1.3 1.9 8.5 2.5 4.6 0.4 10.1 0.4 12.1 0l3.6-0.7-0.5-4.8c-1.4-11.3-9.1-21.6-20.1-26.5-5.2-2.4-7.6-2.8-17.1-3.1-7.5-0.2-12.7 0.2-16.3 1.2z"/>
		<path class="s0" d="m388.5 352c-20.7 4.3-36.3 20.5-41 42.5-1.9 8.8-1.9 24-0.1 32.6 4.3 20.3 20.2 36.8 39.9 41.3 19.5 4.5 39.7-0.5 52.2-13 9.7-9.7 14.3-20.7 15.2-36.9 0.9-15.7 3-14.5-26.5-14.5-18 0-25.1 0.3-26 1.2-0.8 0.8-1.2 4.5-1.2 10 0 10.9 0 10.9 15.6 10.7 6.3-0.1 11.8 0.1 12 0.4 0.9 0.9-3.6 10-6.3 12.9-4.1 4.3-11.4 6.9-19.4 6.9-17.8 0.1-28.1-9.4-31.1-28.4-2.2-14.2 1.8-28.3 10.2-36.1 12.1-11.3 33.2-9.5 41.3 3.6l3 4.8h12.2c9.3 0 12.4-0.3 12.8-1.3 0.8-2.3-2.8-11.4-6.9-17.4-6.1-8.8-16.3-15.7-28.1-18.7-6.5-1.7-20.9-2-27.8-0.6z"/>
		<path class="s0" d="m127.2 354.2c-1.7 1.7-1.7 110.9 0 112.6 1.4 1.4 65.4 1.7 67.6 0.3 1.8-1.1 2.8-15.6 1.3-19.4l-1.1-2.7h-22-22v-12-12h18.9c14.9 0 19.1-0.3 20-1.4 0.8-0.9 1.1-4.7 0.9-10.7l-0.3-9.4-19.7-0.3-19.8-0.2v-12-12l21.3-0.2 21.2-0.3 0.9-8.9c0.6-5.9 0.6-9.4-0.1-10.5-0.9-1.4-4.8-1.6-33.4-1.9-24.4-0.2-32.8 0.1-33.7 1z"/>
		<path class="s0" d="m210.3 353.7c-1.7 0.6-1.8 75.6-0.2 83.5 2.3 10.7 9.6 21.1 18.3 26.2 13.9 8.1 37.5 8.8 51.9 1.5 10.9-5.6 18.5-15.1 21.1-26.9 2.1-8.9 2.4-81.8 0.4-83.8-1.8-1.8-21.2-1.6-22.7 0.2-0.8 0.9-1.2 13-1.4 39.2-0.4 42-0.4 42.3-7 48.1-4.6 4.1-12.1 5.7-19.5 4.3-6.3-1.2-7.9-1.9-11.4-5.7-5.7-5.9-5.8-6.9-5.8-47.6 0-27.7-0.3-37.6-1.2-38.5-1.2-1.2-19.8-1.6-22.5-0.5z"/>
		<path class="s0" d="m497.3 354.2c-2.4 3.2-40.5 108.7-40.1 111.2 0.3 2 0.9 2.1 12.3 2.1h12l4-10.8 4-10.7 21 0.2 21 0.3 3.5 9.7c1.9 5.4 4 10.2 4.6 10.8 0.7 0.7 5.4 1 12.5 0.8 10.5-0.3 11.4-0.5 11.7-2.3 0.1-1.1-3.3-11.9-7.7-24-18.3-50.7-31.4-86.1-32.3-87.3-0.7-0.8-4.7-1.2-13.3-1.2-8.6 0-12.5 0.4-13.2 1.2zm20 50.5l6.6 19.3h-13.4c-7.4 0-13.5-0.2-13.5-0.4 0-0.2 1.7-5.2 3.8-11.2 2.2-6 5.1-14.6 6.7-19.2 1.5-4.6 2.8-8.2 3-8 0.2 0.2 3.2 9 6.8 19.5z"/>
		<path class="s0" d="m575.2 354.2c-1.7 1.7-1.8 110.8 0 112.6 0.8 0.8 4.6 1.2 10.5 1.2 8.6 0 9.4-0.2 10.8-2.4 1.3-2 1.5-7 1.3-36.5-0.2-18.7-0.1-34.1 0.2-34.1 0.3 0 2.5 4.4 5 9.8 2.4 5.3 8.2 17.5 12.8 26.9l8.4 17.3h8.3c6.5 0 8.5-0.4 9.7-1.8 0.9-0.9 7-13.3 13.6-27.5 6.6-14.2 12.3-26.1 12.6-26.4 0.3-0.4 0.6 15.8 0.6 35.8 0 27.1 0.3 36.8 1.2 37.7 0.8 0.8 4.6 1.2 10.3 1.2 5.7 0 9.5-0.4 10.3-1.2 0.9-0.9 1.2-14.7 1.2-55.9 0-30.1-0.3-55.4-0.6-56.3-0.5-1.4-2.8-1.6-14.6-1.6h-13.9l-7.9 16.2c-4.3 9-11 23.2-14.8 31.7l-7 15.5-4.9-10.5c-2.6-5.7-9.3-19.9-14.8-31.4l-10.1-21-13.5-0.3c-9.6-0.2-13.8 0.1-14.7 1z"/>
		<path class="s0" d="m714.2 354.2c-0.9 0.9-1.2 14.7-1.2 55.9 0 48.4 0.2 54.9 1.6 56.3 1.3 1.4 6 1.6 35.8 1.6 25.3 0 34.5-0.3 35.4-1.2 0.8-0.8 1.2-4.6 1.2-10.3 0-5.7-0.4-9.5-1.2-10.3-0.9-0.9-7.7-1.2-24.5-1.2h-23.3v-12-12h20c18.7 0 20-0.1 21-1.9 1.4-2.8 1.3-17.4-0.2-18.9-0.9-0.9-6.9-1.2-21-1.2h-19.8v-12-12h22.5c26.1 0 24.5 0.7 24.5-11 0-12 3.2-11-35.8-11-25 0-34.1 0.3-35 1.2z"/>
	</g>
</svg>